# xmcd
#
# Track frame offsets: 
#        150
#        17428
#        31819
#        45537
#        64119
#        80183
#        95406
#        108510
#        124916
#        140050
#        156760
#        167001
#        186533
#
# Disc length: 2651 seconds
#
# Revision: 1
# Processed by: cddbd v1.5.2PL0 Copyright (c) Steve Scherf et al.
# Submitted via: ExactAudioCopy v0.95b4
#
DISCID=b00a590d
DTITLE=Mark Olson - The Salvation Blues
DYEAR=2007
DGENRE=Country
TTITLE0=My Carol
TTITLE1=Clifton Bridge
TTITLE2=Poor Michael's Boat
TTITLE3=National Express
TTITLE4=Salvation Blues
TTITLE5=Keith
TTITLE6=Winter Song
TTITLE7=Sandy Denny
TTITLE8=Tears From Above
TTITLE9=Look Into The Night
TTITLE10=My One Book Philosophy
TTITLE11=Copper Coin
TTITLE12=Your Time Will Come
EXTD=YEAR: 2007
EXTT0=
EXTT1=
EXTT2=
EXTT3=
EXTT4=
EXTT5=
EXTT6=
EXTT7=
EXTT8=
EXTT9=
EXTT10=
EXTT11=
EXTT12=
PLAYORDER=
